<?xml version="1.0" encoding="UTF-8"?>
<svg xmlns="http://www.w3.org/2000/svg" viewBox="0 0 712 712" width="712" height="712">
<path d="M0.16 0.16C237.39 0.16 474.61 0.16 711.84 0.16C711.84 237.39 711.84 474.61 711.84 711.84C474.61 711.84 237.39 711.84 0.16 711.84C0.16 474.61 0.16 237.39 0.16 0.16ZM350.32 24.33C334.39 27 328.58 40.16 315.29 45.77C299.23 52.55 280.56 43.69 268.1 61.63C259.65 73.78 264.91 88.28 258.94 99.94C251.86 113.78 235.43 120.55 236.57 138.82C237.72 157.29 253.82 161.96 259.48 176.53C264.99 190.73 258.99 206.09 272.1 217.86C284.18 228.72 301.42 223.46 315.34 229.25C319.61 231.02 322.83 234.17 326.26 237.15C334.17 244.02 343.09 250.47 354.05 250.3C373.22 249.99 377.79 236.01 392.2 229.32C405.95 222.95 422.79 228.86 435.17 218.31C448.9 206.61 442.64 191.11 448.29 176.74C453.36 163.84 467.76 157.56 470.68 143.36C472.74 133.32 469.12 123.5 462.38 115.99C457.52 110.57 450.89 105.31 448.26 98.32C442.98 84.33 448.22 70.1 436.63 57.86C424.9 45.46 407.08 51.63 392.89 45.72C378.15 39.58 368.65 21.26 350.32 24.33ZM338.44 145.07C343.47 141.92 347.39 136.33 351.61 132.17C362.62 121.32 372.98 109.71 384.26 99.14C391.47 92.39 402.94 91.54 408.62 100.82C413.29 108.45 410.26 116.18 404.54 122.02C389.75 137.13 374.59 151.89 359.75 166.95C353.06 173.74 347.14 182.21 336.5 181.28C330.56 180.76 326.86 176.84 322.87 172.92C316.23 166.4 303.22 155.75 298.76 148.27C296.68 144.77 296.34 140.04 297.77 136.22C298.65 133.87 300.1 131.68 301.98 130C303.58 128.57 305.31 127.7 307.31 126.93C321.72 121.36 328.02 140.44 338.44 145.07ZM354.7 307.36C347.85 304.51 337.68 292.34 331.76 286.96C317.93 274.39 303.25 263.09 287.29 253.36C258.43 235.76 225.03 224.26 191.49 220.27C166.79 217.33 141.55 218.55 116.72 218.54C99.81 218.53 82.9 218.52 66 218.53C52.7 218.53 40.63 218.1 33.52 231.5C29.23 239.6 30.64 249.62 30.64 258.47C30.65 275.81 30.67 293.14 30.65 310.48C30.62 333.24 30.61 356 30.61 378.76C30.61 396.21 29.39 414.26 33.17 431.43C38.41 455.28 55.22 475.13 77.93 484.17C85.42 487.15 93.09 488.81 101.11 489.57C109.77 490.38 118.81 489.27 127.22 487.24C134.01 485.61 140.65 482.78 146.7 479.27C179.91 460.04 184.11 430.3 184.19 395.01C184.22 381.58 184.12 368.14 184.14 354.7C184.16 339.96 184.15 325.22 184.15 310.48C184.15 300.95 184.13 291.41 184.11 281.87C184.1 277.12 183.33 271.52 184.48 266.92C192.56 265.87 212.06 272.01 220.33 274.76C250.15 284.69 276.36 301.25 299.29 322.65C304.08 327.12 316.26 337.47 319.28 342.35C315.59 347.91 309.27 352.82 304.4 357.39C294.91 366.31 285.76 375.6 276.5 384.75C271.11 390.07 262.51 396 260.19 403.51C257.1 413.54 266.88 420.15 275.38 421.93C290.85 425.16 306.88 420.08 319.16 410.54C328.31 403.42 336.18 393.85 344.42 385.69C361.41 368.88 378.62 352.26 395.84 335.68C417.4 314.92 439.73 294.52 467.72 282.74C480.44 277.39 493.31 272.59 506.83 269.77C512.03 268.69 519.18 266.21 524.31 267.57C525.36 303.26 524.48 339.14 524.46 374.86C524.44 394.27 522.33 415.04 527.48 433.95C537.94 472.38 573.88 493.89 612.84 488.94C620.52 487.97 628.26 485.52 635.18 482.08C640.99 479.2 646.48 475.87 651.39 471.61C676.71 449.69 677.96 421 677.95 389.81C677.95 374.64 677.98 359.47 677.95 344.3C677.93 332.16 677.92 320.02 677.93 307.88C677.95 290.98 678 274.07 677.99 257.17C677.98 248.58 679.29 238.96 674.96 231.14C667.67 217.99 655.97 218.5 642.75 218.53C625.19 218.57 607.64 218.47 590.08 218.52C566.09 218.59 541.78 217.38 517.91 220.25C480.63 224.74 444.97 238.12 413.35 258.27C400.55 266.42 388.48 276.37 377.28 286.59C369.83 293.39 362.92 301.47 354.7 307.36ZM134.27 266.05C135.64 271.23 134.67 277.78 134.67 283.17C134.67 294.45 134.64 305.72 134.64 316.99C134.64 338.44 134.63 359.9 134.58 381.36C134.55 392.9 135.4 404.77 134.29 416.26C132.93 430.4 122.32 442.37 107.61 442.43C92.67 442.49 81.11 430.5 80.19 415.82C79.44 403.77 80.08 391.48 80.09 379.41C80.11 359.47 80.03 339.53 80.07 319.59C80.1 307.88 80.1 296.18 80.08 284.47C80.06 278.55 79.28 271.96 80.3 266.14C84.54 264.5 90.7 265.54 95.26 265.56C104.14 265.61 113.03 265.64 121.92 265.6C125.78 265.58 130.65 264.79 134.27 266.05ZM628.44 266.27C629.51 272.24 628.57 279.05 628.57 285.13C628.57 297.05 628.6 308.97 628.57 320.89C628.52 341.69 628.57 362.5 628.6 383.31C628.62 394.09 629.28 405.09 628.4 415.84C627.21 430.44 616.24 442.48 601.14 442.38C586.1 442.28 575.59 430.32 574.18 415.82C573.12 404.96 574.04 393.57 574.07 382.66C574.1 360.99 574.06 339.31 574.05 317.64C574.04 306.15 574.04 294.66 574.05 283.17C574.06 277.7 573.1 271.22 574.48 265.94C578.46 264.91 583.33 265.62 587.48 265.62C596.15 265.62 604.82 265.61 613.49 265.62C617.96 265.62 624.42 264.35 628.44 266.27ZM397.03 364.3C382.5 367.28 372.84 383.6 379.22 397.5C382.44 404.51 388.78 409.12 394.11 414.44C424.03 444.35 455.04 473.15 484.75 503.26C495.34 514 513.08 525.91 506.02 543.37C501.69 554.1 487.99 559.79 477.44 554.82C471.23 551.89 465.92 545.36 461.2 540.49C445.96 524.75 430.17 509.52 414.7 494C405.02 484.28 394.49 471.38 383.56 463.37C373.92 456.3 360.55 457.21 351.7 465.18C343.29 472.75 341.85 486.27 348.07 495.63C351.39 500.62 356.69 504.54 360.91 508.77C380.14 528.05 400.06 546.86 418.72 566.7C424.86 573.24 437.12 581.97 438.66 590.86C441.21 605.63 428.53 618.06 413.84 616.01C405.28 614.82 400.8 607.76 393.23 604.54C381.23 599.43 366.44 605.01 361.38 617.27C356.35 629.47 361.35 637.28 370.04 645.3C384.65 658.79 403.76 665.24 423.62 663.83C446.12 662.23 465.57 650.39 477.54 631.31C481.25 625.39 485.23 612.29 489.21 608.52C495.1 602.95 504.5 602.5 511.82 599.87C522.38 596.09 532.35 589.47 539.77 581.06C545.02 575.1 549.3 568.54 552.45 561.24C560.85 541.75 558.99 516.79 547.78 498.76C541.35 488.41 530.91 480.04 522.1 471.76C508.5 458.95 495.29 445.66 481.96 432.58C463.39 414.33 444.85 395.96 425.82 378.19C417.53 370.45 409.7 361.7 397.03 364.3ZM221.49 446.97C211.16 447.97 204.53 455.78 197.77 462.72C184.41 476.45 170.28 489.44 157.03 503.27C151.64 508.89 143.96 514.34 140.96 521.7C136.52 532.61 140.79 544.45 150.28 551.01C157.9 556.27 168.15 555.72 176.11 551.61C182.24 548.46 186.69 541.88 191.62 537.2C203.9 525.52 215.82 513.22 227.67 501.09C233.86 494.77 242.86 488.38 246.24 480.02C252.95 463.37 239.15 445.26 221.49 446.97ZM279.4 500.96C268.86 501.85 262.46 509.56 255.4 516.47C241.29 530.28 227.05 544.1 213.4 558.36C207.82 564.19 200.29 569.59 197.33 577.37C193.3 587.99 197.91 599.28 206.91 605.56C214.38 610.78 224.5 611.13 232.4 606.65C239.93 602.38 245.55 594.76 251.58 588.72C262.51 577.75 273.47 566.83 284.32 555.79C290.98 549.01 300.47 542.23 303.92 533.09C309.97 517.1 296.3 499.53 279.4 500.96ZM338.53 554.27C327.53 554.95 320.28 562.92 313.09 570.24C300.73 582.81 288.08 595.08 275.75 607.67C269.58 613.97 261.55 619.86 257.68 627.98C252.93 637.96 255.71 650.43 264.73 656.99C272.63 662.73 283.17 663.52 291.75 658.82C298.89 654.91 304.89 646.99 310.57 641.22C321.11 630.51 331.89 620.04 342.41 609.32C349.07 602.53 358.33 596.16 361.67 586.95C367.26 571.53 355.55 553.22 338.53 554.27Z" fill="#f4f1e3" fill-rule="evenodd" stroke="#f4f1e3" stroke-width="0.25" stroke-linejoin="round"/>
<path d="M354.7 307.36C362.92 301.47 369.83 293.39 377.28 286.59C388.48 276.37 400.55 266.42 413.35 258.27C444.97 238.12 480.63 224.74 517.91 220.25C541.78 217.38 566.09 218.59 590.08 218.52C607.64 218.47 625.19 218.57 642.75 218.53C655.97 218.5 667.67 217.99 674.96 231.14C679.29 238.96 677.98 248.58 677.99 257.17C678 274.07 677.95 290.98 677.93 307.88C677.92 320.02 677.93 332.16 677.95 344.3C677.98 359.47 677.95 374.64 677.95 389.81C677.96 421 676.71 449.69 651.39 471.61C646.48 475.87 640.99 479.2 635.18 482.08C628.26 485.52 620.52 487.97 612.84 488.94C573.88 493.89 537.94 472.38 527.48 433.95C522.33 415.04 524.44 394.27 524.46 374.86C524.48 339.14 525.36 303.26 524.31 267.57C519.18 266.21 512.03 268.69 506.83 269.77C493.31 272.59 480.44 277.39 467.72 282.74C439.73 294.52 417.4 314.92 395.84 335.68C378.62 352.26 361.41 368.88 344.42 385.69C336.18 393.85 328.31 403.42 319.16 410.54C306.88 420.08 290.85 425.16 275.38 421.93C266.88 420.15 257.1 413.54 260.19 403.51C262.51 396 271.11 390.07 276.5 384.75C285.76 375.6 294.91 366.31 304.4 357.39C309.27 352.82 315.59 347.91 319.28 342.35C316.26 337.47 304.08 327.12 299.29 322.65C276.36 301.25 250.15 284.69 220.33 274.76C212.06 272.01 192.56 265.87 184.48 266.92C183.33 271.52 184.1 277.12 184.11 281.87C184.13 291.41 184.15 300.95 184.15 310.48C184.15 325.22 184.16 339.96 184.14 354.7C184.12 368.14 184.22 381.58 184.19 395.01C184.11 430.3 179.91 460.04 146.7 479.27C140.65 482.78 134.01 485.61 127.22 487.24C118.81 489.27 109.77 490.38 101.11 489.57C93.09 488.81 85.42 487.15 77.93 484.17C55.22 475.13 38.41 455.28 33.17 431.43C29.39 414.26 30.61 396.21 30.61 378.76C30.61 356 30.62 333.24 30.65 310.48C30.67 293.14 30.65 275.81 30.64 258.47C30.64 249.62 29.23 239.6 33.52 231.5C40.63 218.1 52.7 218.53 66 218.53C82.9 218.52 99.81 218.53 116.72 218.54C141.55 218.55 166.79 217.33 191.49 220.27C225.03 224.26 258.43 235.76 287.29 253.36C303.25 263.09 317.93 274.39 331.76 286.96C337.68 292.34 347.85 304.51 354.7 307.36ZM134.27 266.05C130.65 264.79 125.78 265.58 121.92 265.6C113.03 265.64 104.14 265.61 95.26 265.56C90.7 265.54 84.54 264.5 80.3 266.14C79.28 271.96 80.06 278.55 80.08 284.47C80.1 296.18 80.1 307.88 80.07 319.59C80.03 339.53 80.11 359.47 80.09 379.41C80.08 391.48 79.44 403.77 80.19 415.82C81.11 430.5 92.67 442.49 107.61 442.43C122.32 442.37 132.93 430.4 134.29 416.26C135.4 404.77 134.55 392.9 134.58 381.36C134.63 359.9 134.64 338.44 134.64 316.99C134.64 305.72 134.67 294.45 134.67 283.17C134.67 277.78 135.64 271.23 134.27 266.05ZM628.44 266.27C624.42 264.35 617.96 265.62 613.49 265.62C604.82 265.61 596.15 265.62 587.48 265.62C583.33 265.62 578.46 264.91 574.48 265.94C573.1 271.22 574.06 277.7 574.05 283.17C574.04 294.66 574.04 306.15 574.05 317.64C574.06 339.31 574.1 360.99 574.07 382.66C574.04 393.57 573.12 404.96 574.18 415.82C575.59 430.32 586.1 442.28 601.14 442.38C616.24 442.48 627.21 430.44 628.4 415.84C629.28 405.09 628.62 394.09 628.6 383.31C628.57 362.5 628.52 341.69 628.57 320.89C628.6 308.97 628.57 297.05 628.57 285.13C628.57 279.05 629.51 272.24 628.44 266.27ZM397.03 364.3C409.7 361.7 417.53 370.45 425.82 378.19C444.85 395.96 463.39 414.33 481.96 432.58C495.29 445.66 508.5 458.95 522.1 471.76C530.91 480.04 541.35 488.41 547.78 498.76C558.99 516.79 560.85 541.75 552.45 561.24C549.3 568.54 545.02 575.1 539.77 581.06C532.35 589.47 522.38 596.09 511.82 599.87C504.5 602.5 495.1 602.95 489.21 608.52C485.23 612.29 481.25 625.39 477.54 631.31C465.57 650.39 446.12 662.23 423.62 663.83C403.76 665.24 384.65 658.79 370.04 645.3C361.35 637.28 356.35 629.47 361.38 617.27C366.44 605.01 381.23 599.43 393.23 604.54C400.8 607.76 405.28 614.82 413.84 616.01C428.53 618.06 441.21 605.63 438.66 590.86C437.12 581.97 424.86 573.24 418.72 566.7C400.06 546.86 380.14 528.05 360.91 508.77C356.69 504.54 351.39 500.62 348.07 495.63C341.85 486.27 343.29 472.75 351.7 465.18C360.55 457.21 373.92 456.3 383.56 463.37C394.49 471.38 405.02 484.28 414.7 494C430.17 509.52 445.96 524.75 461.2 540.49C465.92 545.36 471.23 551.89 477.44 554.82C487.99 559.79 501.69 554.1 506.02 543.37C513.08 525.91 495.34 514 484.75 503.26C455.04 473.15 424.03 444.35 394.11 414.44C388.78 409.12 382.44 404.51 379.22 397.5C372.84 383.6 382.5 367.28 397.03 364.3ZM221.49 446.97C239.15 445.26 252.95 463.37 246.24 480.02C242.86 488.38 233.86 494.77 227.67 501.09C215.82 513.22 203.9 525.52 191.62 537.2C186.69 541.88 182.24 548.46 176.11 551.61C168.15 555.72 157.9 556.27 150.28 551.01C140.79 544.45 136.52 532.61 140.96 521.7C143.96 514.34 151.64 508.89 157.03 503.27C170.28 489.44 184.41 476.45 197.77 462.72C204.53 455.78 211.16 447.97 221.49 446.97ZM279.4 500.96C296.3 499.53 309.97 517.1 303.92 533.09C300.47 542.23 290.98 549.01 284.32 555.79C273.47 566.83 262.51 577.75 251.58 588.72C245.55 594.76 239.93 602.38 232.4 606.65C224.5 611.13 214.38 610.78 206.91 605.56C197.91 599.28 193.3 587.99 197.33 577.37C200.29 569.59 207.82 564.19 213.4 558.36C227.05 544.1 241.29 530.28 255.4 516.47C262.46 509.56 268.86 501.85 279.4 500.96ZM338.53 554.27C355.55 553.22 367.26 571.53 361.67 586.95C358.33 596.16 349.07 602.53 342.41 609.32C331.89 620.04 321.11 630.51 310.57 641.22C304.89 646.99 298.89 654.91 291.75 658.82C283.17 663.52 272.63 662.73 264.73 656.99C255.71 650.43 252.93 637.96 257.68 627.98C261.55 619.86 269.58 613.97 275.75 607.67C288.08 595.08 300.73 582.81 313.09 570.24C320.28 562.92 327.53 554.95 338.53 554.27Z" fill="#2c5d56" fill-rule="evenodd" stroke="#2c5d56" stroke-width="0.25" stroke-linejoin="round"/>
<path d="M350.32 24.33C368.65 21.26 378.15 39.58 392.89 45.72C407.08 51.63 424.9 45.46 436.63 57.86C448.22 70.1 442.98 84.33 448.26 98.32C450.89 105.31 457.52 110.57 462.38 115.99C469.12 123.5 472.74 133.32 470.68 143.36C467.76 157.56 453.36 163.84 448.29 176.74C442.64 191.11 448.9 206.61 435.17 218.31C422.79 228.86 405.95 222.95 392.2 229.32C377.79 236.01 373.22 249.99 354.05 250.3C343.09 250.47 334.17 244.02 326.26 237.15C322.83 234.17 319.61 231.02 315.34 229.25C301.42 223.46 284.18 228.72 272.1 217.86C258.99 206.09 264.99 190.73 259.48 176.53C253.82 161.96 237.72 157.29 236.57 138.82C235.43 120.55 251.86 113.78 258.94 99.94C264.91 88.28 259.65 73.78 268.1 61.63C280.56 43.69 299.23 52.55 315.29 45.77C328.58 40.16 334.39 27 350.32 24.33ZM338.44 145.07C328.02 140.44 321.72 121.36 307.31 126.93C305.31 127.7 303.58 128.57 301.98 130C300.1 131.68 298.65 133.87 297.77 136.22C296.34 140.04 296.68 144.77 298.76 148.27C303.22 155.75 316.23 166.4 322.87 172.92C326.86 176.84 330.56 180.76 336.5 181.28C347.14 182.21 353.06 173.74 359.75 166.95C374.59 151.89 389.75 137.13 404.54 122.02C410.26 116.18 413.29 108.45 408.62 100.82C402.94 91.54 391.47 92.39 384.26 99.14C372.98 109.71 362.62 121.32 351.61 132.17C347.39 136.33 343.47 141.92 338.44 145.07Z" fill="#c4993a" fill-rule="evenodd" stroke="#c4993a" stroke-width="0.25" stroke-linejoin="round"/>
</svg>